<svg id="Layer_1" data-name="Layer 1" xmlns="http://www.w3.org/2000/svg" viewBox="0 0 363.6 70.56"><defs><style>.cls-1{fill:#222;}</style></defs><title>Artboard 1</title><rect class="cls-1" x="81.54" y="1.74" width="0.43" height="65.2"/><path class="cls-1" d="M20.56,31.61H33.84v2.92a5.32,5.32,0,0,0-1.5-.05l-1.1.11c-.6.06-1.11.12-1.55.13H27.63l-.53,0v2.81H25.78v1.53H27.1V41.9H25.78v1.52H27.1v3.13l.51,0s.75,0,1.67,0,1.58-.08,2.16-.13a16.58,16.58,0,0,1,1.81-.1.51.51,0,0,1,.51.27l.08.08v7.69c-3.22-1.58-13.28-7.23-13.28-15.93Zm0-11.89H48.48V30.15H20.56ZM35.09,45.41v-9.7a1.06,1.06,0,0,1,.27-.09,3.86,3.86,0,0,1,1.25,0l1.1.11c.61.06,1.14.12,1.63.13h1.52V45.5h-1c-.9,0-1.51-.07-2.09-.12a17.89,17.89,0,0,0-1.94-.11,1.65,1.65,0,0,0-.69.14m13.39-6.57c0,8.43-10.35,14.14-13.39,15.64V46.81l.15-.16a.59.59,0,0,1,.54-.28c.7,0,1.23,0,1.84.1s1.23.11,2.16.13,1.63,0,1.66,0l.52,0V43.69h1.21V42.16H42V39.39h1.21V37.86H42V34.75l-.54,0H39.36c-.43,0-1-.07-1.54-.13l-1.1-.11a5.36,5.36,0,0,0-1.6.06l0,0v-3H48.48ZM33.84,45.37a1.56,1.56,0,0,0-.56-.1h0a17.76,17.76,0,0,0-1.91.11c-.59,0-1.2.1-2.09.12H28.19V35.82h.13c.37,0,.83,0,1.4,0s1-.07,1.63-.13l1.1-.11a4.75,4.75,0,0,1,1.23,0l.16,0Zm-7.11,6.31a36.64,36.64,0,0,0,7.52,4.54l.29.12.28-.13a36.43,36.43,0,0,0,7.5-4.53c5-3.9,7.62-8.34,7.62-12.84V18.25H19.1V38.48c0,4.69,2.64,9.25,7.63,13.2"/><path class="cls-1" d="M31.12,26c0,.27-.36.56-.65.75-.67.45-1.68,1-2.16,1.3-.46-.28-1.41-.85-2.08-1.3-.44-.29-.7-.58-.71-.79V24.37h5.6V26m-5.6-4.13h5.6v1.41h-5.6V21.86m6.7-1.1h-7.8v.55c0,1.7,0,4.58,0,4.71a2.24,2.24,0,0,0,1.19,1.63c.94.63,2.34,1.45,2.4,1.49l.27.16.27-.15c.06,0,1.58-.86,2.52-1.5,1.11-.74,1.13-1.41,1.13-1.63s0-2.63,0-4.71Z"/><path class="cls-1" d="M41.34,22.22l-2.74,2V21.62h5.78c0,.86,0,1.83,0,2.63Zm3,3.67c0,.28-.36.57-.66.78-.7.46-1.75,1-2.24,1.33-.46-.28-1.44-.87-2.13-1.33-.22-.14-.72-.51-.74-.83v-.29l2.76-2,3,2c0,.16,0,.28,0,.32m1.1-5.36h-8v.55c0,2.13,0,4.71,0,4.84a2.3,2.3,0,0,0,1.22,1.66c1,.64,2.39,1.49,2.46,1.52l.26.16.27-.15c.07,0,1.62-.88,2.59-1.53,1.14-.76,1.15-1.45,1.16-1.67s0-2.7,0-4.83Z"/><path class="cls-1" d="M36.51,37.88l.52,0c.35,0,.66.07.93.08l1.61,0,0-1.1-1.61,0a7,7,0,0,1-.83-.07l-.54-.05a1.81,1.81,0,0,0-.4,0l0,1.09a1.09,1.09,0,0,1,.25,0"/><path class="cls-1" d="M38,40c-.23,0-.49,0-.79-.07l-.57-.06a2.71,2.71,0,0,0-.4,0l0,1.09h.27l.56.06c.34,0,.63.06.89.07l1.19,0h.42l0-1.09-.42,0L38,40"/><path class="cls-1" d="M38,43l-.81-.07-.55-.06a2.89,2.89,0,0,0-.4,0l0,1.1h.26l.54.05c.35,0,.64.07.9.08h.46l1.16,0,0-1.1-1.15,0Z"/><path class="cls-1" d="M31.07,38a8.54,8.54,0,0,0,.92-.07l.53-.06h.25V36.76h-.36l-.54.06c-.32,0-.59.06-.84.07l-1.61,0,0,1.1Z"/><path class="cls-1" d="M31.88,39.86c-.31,0-.59.06-.83.07l-1.61,0,0,1.1,1.61,0c.27,0,.57-.05.92-.08l.52-.06h.24l.05-1.1h-.39Z"/><path class="cls-1" d="M31.89,42.89c-.32,0-.6.06-.89.07l-1.56,0,0,1.1,1.62,0c.26,0,.57-.05.92-.08l.54-.06h.23l0-1.09h-.37Z"/><path class="cls-1" d="M6.74,34.52a2.24,2.24,0,0,0,2.31-2.4,4.45,4.45,0,0,0-.08-1L9,31H7.81l.11.23a2.25,2.25,0,0,1,.11.88,1.28,1.28,0,0,1-1.48,1.22A1.29,1.29,0,0,1,5.2,31.89a1.59,1.59,0,0,1,.26-.84l.15-.22-1.12-.16,0,.11a3,3,0,0,0-.26,1,2.33,2.33,0,0,0,2.35,2.7h.21"/><path class="cls-1" d="M6.2,26.55a1,1,0,0,1,1.06-.72,2.05,2.05,0,0,1,.58.09,1.69,1.69,0,0,1,1,.69.91.91,0,0,1,.07.71,1,1,0,0,1-1,.72A2.32,2.32,0,0,1,7.26,28c-.63-.18-1.28-.65-1.06-1.4m.72,2.59a3.47,3.47,0,0,0,.88.13A2.11,2.11,0,0,0,9.91,27.6a2.2,2.2,0,0,0-.15-1.72,2.5,2.5,0,0,0-1.58-1.15,3.28,3.28,0,0,0-.85-.12,2.11,2.11,0,0,0-2.12,1.66,2.2,2.2,0,0,0,1.71,2.87"/><path class="cls-1" d="M9.18,21.55l-.06.1-.76-.4.06-.11c.19-.35.39-.64.72-.47a.4.4,0,0,1,.21.22,1,1,0,0,1-.17.66M11.64,23,10,22.13l.05-.1c.15-.29.27-.26.51-.23l1.58.2.62-1.17-2.09-.22a1.38,1.38,0,0,0-.41,0,1.17,1.17,0,0,0-.64-1.09A1.49,1.49,0,0,0,9,19.35c-.77,0-1.17.77-1.53,1.45l-.55,1,4.17,2.23Z"/><polygon class="cls-1" points="14.25 18.88 12.1 17.1 15.14 17.8 15.99 16.77 12.35 13.75 11.61 14.65 13.76 16.43 10.72 15.73 9.86 16.76 13.51 19.77 14.25 18.88"/><polygon class="cls-1" points="19.51 13.77 18.86 12.97 17.54 14.05 16.97 13.34 18.18 12.37 17.52 11.57 16.32 12.55 15.85 11.97 17.16 10.9 16.51 10.11 14.27 11.93 17.26 15.6 19.51 13.77"/><polygon class="cls-1" points="23.43 11.43 22.93 10.53 21.46 11.36 19.65 8.13 18.6 8.72 20.92 12.84 23.43 11.43"/><polygon class="cls-1" points="27.41 9.9 27.05 8.94 25.47 9.52 24.21 6.03 23.08 6.44 24.69 10.89 27.41 9.9"/><path class="cls-1" d="M32.17,9.12h.28a2.06,2.06,0,0,0,1.44-.61,1.84,1.84,0,0,0,.35-1.38l-.25-3-1.19.09L33,7c.08,1-.3,1.11-.65,1.14h-.08c-.28,0-.67-.1-.74-1l-.22-2.69-1.2.1.25,3a1.63,1.63,0,0,0,1.79,1.68"/><polygon class="cls-1" points="37.58 6.3 38.6 9.25 39.92 9.43 40.55 4.74 39.4 4.59 39.03 7.35 38.01 4.4 36.69 4.22 36.06 8.91 37.21 9.06 37.58 6.3"/><polygon class="cls-1" points="44.1 5.75 42.96 5.39 41.54 9.91 42.69 10.27 44.1 5.75"/><polygon class="cls-1" points="50.03 8.41 48.95 7.87 46.67 10.19 47.18 6.97 46.03 6.39 45.33 11.34 46.49 11.92 50.03 8.41"/><polygon class="cls-1" points="51.22 15.17 51.85 14.37 50.5 13.32 51.06 12.6 52.28 13.56 52.91 12.75 51.69 11.8 52.16 11.2 53.49 12.24 54.12 11.44 51.84 9.66 48.93 13.38 51.22 15.17"/><path class="cls-1" d="M56,14.71l.08.1a1,1,0,0,1,.33.59.36.36,0,0,1-.14.24.41.41,0,0,1-.27.12c-.2,0-.41-.21-.57-.39l-.08-.09Zm-2.79,2.45L54.55,16l.07.09c.18.2.18.29,0,.57L53.92,18l.87,1,1-1.88a1.42,1.42,0,0,0,.12-.38,1.21,1.21,0,0,0,1.24-.21c1-.9.21-1.83-.39-2.51l-.77-.88-3.56,3.12Z"/><path class="cls-1" d="M57.58,20.94c-.23.14-.52-.09-.65-.32a1.86,1.86,0,0,1-.25-.9v-.25l-1.08.5.08.24a3.62,3.62,0,0,0,.4,1,1.75,1.75,0,0,0,1.44,1,1.49,1.49,0,0,0,.76-.23,1.56,1.56,0,0,0,.61-1.86c-.07-.4-.1-.65.07-.75a.49.49,0,0,1,.24-.08.52.52,0,0,1,.41.3,2.12,2.12,0,0,1,.27.79l0,.22,1-.45,0-.13a3.08,3.08,0,0,0-.41-1,1.5,1.5,0,0,0-2.15-.68,1.54,1.54,0,0,0-.6,1.81c.07.44.1.7-.11.82"/><rect class="cls-1" x="57.72" y="23.17" width="4.73" height="1.2" transform="translate(-4.53 24.46) rotate(-22.2)"/><polygon class="cls-1" points="62.52 26.78 58.92 27.66 59.2 28.83 62.8 27.94 63.1 29.15 64.09 28.91 63.21 25.32 62.22 25.57 62.52 26.78"/><polygon class="cls-1" points="59.75 32.51 59.81 33.71 61.67 33.6 64.63 35.12 64.56 33.82 62.83 32.96 64.45 31.94 64.38 30.54 61.6 32.41 59.75 32.51"/><polygon class="cls-1" points="7.66 43.33 8.64 43.05 8.23 41.62 8.96 41.41 9.39 42.91 10.37 42.63 9.61 39.97 5.06 41.28 5.4 42.44 7.25 41.9 7.66 43.33"/><path class="cls-1" d="M10,47.53a2,2,0,0,1-.86.23.93.93,0,0,1-.89-.56.94.94,0,0,1-.06-.73,1.67,1.67,0,0,1,.88-.86,2,2,0,0,1,.82-.21.93.93,0,0,1,.9.55.9.9,0,0,1,.07.73,1.65,1.65,0,0,1-.86.85m1.89-.28a2.27,2.27,0,0,0-.18-1.75,2.14,2.14,0,0,0-1.94-1.32,2.81,2.81,0,0,0-1.25.31A2.49,2.49,0,0,0,7.15,45.9a2.27,2.27,0,0,0,.17,1.75,2.15,2.15,0,0,0,2,1.31,2.81,2.81,0,0,0,1.25-.31,2.47,2.47,0,0,0,1.34-1.4"/><path class="cls-1" d="M15.13,50.92,13,52.6c-.57.46-1,.5-1.31.09a.65.65,0,0,1-.17-.5,1.3,1.3,0,0,1,.55-.76l2.12-1.68-.76-1-2.33,1.85a1.78,1.78,0,0,0-.76,1.29,2.11,2.11,0,0,0,.55,1.38,1.92,1.92,0,0,0,1.47.87,2,2,0,0,0,1.18-.47l2.33-1.85Z"/><polygon class="cls-1" points="19.16 54.77 17.39 56.93 18.06 53.87 17.02 53.02 14.02 56.68 14.93 57.41 16.7 55.25 16.03 58.32 17.06 59.17 20.06 55.51 19.16 54.77"/><path class="cls-1" d="M22.88,59.77a1.27,1.27,0,0,1-1.16.77,1.19,1.19,0,0,1-.58-.15l-.3-.14,1.21-2.4.29.14a1.31,1.31,0,0,1,.65.74,1.37,1.37,0,0,1-.11,1M22.65,57l-1.22-.62-2.12,4.23,1.21.61a3.48,3.48,0,0,0,1.57.44A2.1,2.1,0,0,0,24,60.33c.7-1.4.25-2.52-1.35-3.32"/><polygon class="cls-1" points="25.26 63.25 28.09 64 28.35 63.02 26.69 62.57 26.92 61.69 28.43 62.09 28.7 61.11 27.19 60.71 27.38 59.98 29.03 60.41 29.3 59.43 26.48 58.67 25.26 63.25"/><path class="cls-1" d="M32.2,63.51l-.33,0L32,60.81l.32,0a1.34,1.34,0,0,1-.15,2.68m0-3.72-1.37-.07-.26,4.72,1.36.08h.31a2.18,2.18,0,0,0,2.51-2.22,2.33,2.33,0,0,0-.49-1.73,2.92,2.92,0,0,0-2.06-.79"/><path class="cls-1" d="M39.7,62l.15-1.24.65,1.07ZM39,59.44l-.8,5,1.23-.26.17-1.06,1.52-.34.57.92,1.3-.29-2.8-4.23Z"/><rect class="cls-1" x="43.62" y="61.64" width="1.21" height="1.21" transform="translate(-18.49 18.69) rotate(-19.83)"/><path class="cls-1" d="M47.67,60.27l-.28.16-1.28-2.36.29-.15a1.23,1.23,0,0,1,.62-.17,1.3,1.3,0,0,1,1.14.73,1.27,1.27,0,0,1-.49,1.79M45.76,57.1l-1.2.64,2.25,4.16,1.2-.65c1.57-.85,2-2,1.25-3.36s-1.93-1.65-3.5-.79"/><rect class="cls-1" x="50.4" y="58.13" width="1.21" height="1.21" transform="translate(-24.44 39.78) rotate(-34.92)"/><polygon class="cls-1" points="52.05 52.53 51.84 54.39 52.88 54.53 52.96 53.76 55.22 56.05 56.08 55.2 52.76 51.83 52.05 52.53"/><path class="cls-1" d="M57.83,51.67a.48.48,0,0,1-.67.13.61.61,0,0,1-.19-.65c.33-.22.58-.26.8-.1a.4.4,0,0,1,.17.27.49.49,0,0,1-.11.35M56.21,50.4a1,1,0,0,1-.5.2.29.29,0,0,1-.2-.07.4.4,0,0,1,0-.59.33.33,0,0,1,.28-.17.43.43,0,0,1,.25.09.6.6,0,0,1,.18.54m2.25-.35a1.32,1.32,0,0,0-1.33-.14,1.35,1.35,0,0,0-.52-1.08c-.59-.43-1.38-.19-2,.59a1.35,1.35,0,0,0,.14,2,1.22,1.22,0,0,0,1.16.15,1.25,1.25,0,0,0,.51,1.17,1.34,1.34,0,0,0,.82.3,1.73,1.73,0,0,0,1.34-.82A1.81,1.81,0,0,0,59,51a1.41,1.41,0,0,0-.58-.9"/><path class="cls-1" d="M60.56,47.22a.38.38,0,0,1-.37.23.77.77,0,0,1-.38-.11.83.83,0,0,1-.44-.4.32.32,0,0,1,0-.27.34.34,0,0,1,.35-.21,1.14,1.14,0,0,1,.44.11.77.77,0,0,1,.39.39.34.34,0,0,1,0,.26m0-1.79a1.38,1.38,0,0,0-2,.62,1.2,1.2,0,0,0-.14.65.86.86,0,0,1-.33-1.08,1.8,1.8,0,0,1,.46-.56l.16-.13-.87-.63-.1.1a2.88,2.88,0,0,0-.58.8,1.73,1.73,0,0,0-.13,1.36,3.13,3.13,0,0,0,1.64,1.59,3.09,3.09,0,0,0,1.37.4,1.44,1.44,0,0,0,1.35-.89,1.54,1.54,0,0,0-.84-2.23"/><path class="cls-1" d="M62.27,40.65a1.48,1.48,0,0,0-2,1.06,1.12,1.12,0,0,0-.06.23l-.55-.18.48-1.62-.94-.28-.81,2.73,2.62.83v-.23a2.69,2.69,0,0,1,.1-.74c.07-.22.31-.78.82-.63s.41.74.36.91a2,2,0,0,1-.44.74l-.15.19,1.11.36.06-.12a5.14,5.14,0,0,0,.43-1,2,2,0,0,0-.06-1.47,1.65,1.65,0,0,0-1-.8"/><path class="cls-1" d="M34.4,11.33a23,23,0,1,1-23,23,23,23,0,0,1,23-23m-23.83,23A23.84,23.84,0,1,0,34.4,10.51,23.86,23.86,0,0,0,10.57,34.34"/><path class="cls-1" d="M34.4,66.09A31.75,31.75,0,1,1,66.15,34.34,31.78,31.78,0,0,1,34.4,66.09m0-64.35A32.6,32.6,0,1,0,67,34.34,32.64,32.64,0,0,0,34.4,1.74"/><path class="cls-1" d="M108.31,57.38,106.13,51h0l-2.26,6.36Zm-.22-10.64,6.49,17.34h-4l-1.31-3.86h-6.49l-1.36,3.86H97.63l6.55-17.34Z"/><path class="cls-1" d="M118.18,51.53v2.33h0a4.25,4.25,0,0,1,1.6-1.93,4.61,4.61,0,0,1,1.14-.55,4,4,0,0,1,1.26-.19,2.77,2.77,0,0,1,.76.12v3.21a4.1,4.1,0,0,0-.59-.09,4.82,4.82,0,0,0-.65,0,3.73,3.73,0,0,0-1.61.32,2.86,2.86,0,0,0-1,.86,3.32,3.32,0,0,0-.57,1.28,6.52,6.52,0,0,0-.17,1.57v5.66H114.9V51.53Z"/><path class="cls-1" d="M129.09,53.79a2.44,2.44,0,0,0-1.39.37,3.13,3.13,0,0,0-.91,1,4.5,4.5,0,0,0-.5,1.31,7.78,7.78,0,0,0-.14,1.43,7.34,7.34,0,0,0,.14,1.38,4.46,4.46,0,0,0,.48,1.28,2.79,2.79,0,0,0,.88.93,2.49,2.49,0,0,0,1.36.36,2.54,2.54,0,0,0,1.91-.69,3.35,3.35,0,0,0,.84-1.85h3.32a5.68,5.68,0,0,1-1.94,3.81A6.3,6.3,0,0,1,129,64.4a6.82,6.82,0,0,1-2.59-.48,5.63,5.63,0,0,1-2-1.32,6,6,0,0,1-1.29-2A6.93,6.93,0,0,1,122.7,58a8.46,8.46,0,0,1,.42-2.71,6.07,6.07,0,0,1,1.25-2.16,5.82,5.82,0,0,1,2-1.42,6.84,6.84,0,0,1,2.72-.51,7.65,7.65,0,0,1,2.15.29,5.52,5.52,0,0,1,1.84.89,4.61,4.61,0,0,1,1.33,1.48A4.73,4.73,0,0,1,135,56h-3.37a2.32,2.32,0,0,0-2.55-2.16"/><path class="cls-1" d="M139.2,46.74v6.54h.07A4,4,0,0,1,141,51.69a4.41,4.41,0,0,1,2-.5,5.89,5.89,0,0,1,2.27.37,3.43,3.43,0,0,1,1.4,1,4.07,4.07,0,0,1,.72,1.62,10.71,10.71,0,0,1,.2,2.13v7.72h-3.45V57a4.44,4.44,0,0,0-.48-2.32,1.89,1.89,0,0,0-1.73-.76,2.38,2.38,0,0,0-2,.84,4.62,4.62,0,0,0-.63,2.75v6.58h-3.45V46.74Z"/><path class="cls-1" d="M152.27,51.53V64.08h-3.44V51.53Zm-3.44-4.79h3.44v2.84h-3.44Z"/><path class="cls-1" d="M161.37,51.53v2.31h-2.52v6.21a1.16,1.16,0,0,0,1.45,1.46,5,5,0,0,0,.56,0,3.92,3.92,0,0,0,.51-.07v2.67a8.55,8.55,0,0,1-1,.1c-.35,0-.7,0-1,0a9.21,9.21,0,0,1-1.52-.11,3.47,3.47,0,0,1-1.26-.42,2.14,2.14,0,0,1-.86-.9,3.1,3.1,0,0,1-.32-1.53v-7.4h-2.09V51.53h2.09V47.76h3.45v3.77Z"/><path class="cls-1" d="M169.64,54.47a2.39,2.39,0,0,0-1.88-.68,2.93,2.93,0,0,0-1.37.28,2.52,2.52,0,0,0-1.34,1.56,4.14,4.14,0,0,0-.16.83h5.61a4,4,0,0,0-.86-2m-3.9,6.6a3.11,3.11,0,0,0,2.24.75,3,3,0,0,0,1.79-.52,2.17,2.17,0,0,0,.93-1.1h3a5.78,5.78,0,0,1-2.23,3.23,6.66,6.66,0,0,1-3.64,1,7.15,7.15,0,0,1-2.68-.48,5.5,5.5,0,0,1-2-1.34,6.16,6.16,0,0,1-1.28-2.09,7.63,7.63,0,0,1-.44-2.67,7.31,7.31,0,0,1,.46-2.63,6,6,0,0,1,3.34-3.49,6.47,6.47,0,0,1,2.61-.51,5.89,5.89,0,0,1,2.79.62,5.51,5.51,0,0,1,1.95,1.66,6.94,6.94,0,0,1,1.11,2.38,8.6,8.6,0,0,1,.24,2.79h-9.06a3.53,3.53,0,0,0,.85,2.43"/><path class="cls-1" d="M181,53.79a2.46,2.46,0,0,0-1.39.37,3.13,3.13,0,0,0-.91,1,4.5,4.5,0,0,0-.5,1.31,7.78,7.78,0,0,0-.14,1.43,7.34,7.34,0,0,0,.14,1.38,4.46,4.46,0,0,0,.48,1.28,2.64,2.64,0,0,0,.89.93,2.44,2.44,0,0,0,1.36.36,2.52,2.52,0,0,0,1.9-.69,3.22,3.22,0,0,0,.84-1.85H187a5.73,5.73,0,0,1-2,3.81A6.26,6.26,0,0,1,181,64.4a6.82,6.82,0,0,1-2.59-.48,5.63,5.63,0,0,1-2-1.32,6,6,0,0,1-1.29-2,6.93,6.93,0,0,1-.46-2.58,8.19,8.19,0,0,1,.43-2.71,6,6,0,0,1,1.25-2.16,5.69,5.69,0,0,1,2-1.42,6.87,6.87,0,0,1,2.72-.51,7.65,7.65,0,0,1,2.15.29,5.67,5.67,0,0,1,1.85.89,4.58,4.58,0,0,1,1.9,3.58h-3.37A2.32,2.32,0,0,0,181,53.79"/><path class="cls-1" d="M195,51.53v2.31h-2.53v6.22a1.74,1.74,0,0,0,.29,1.17,1.72,1.72,0,0,0,1.17.29,5.12,5.12,0,0,0,.56,0,3.92,3.92,0,0,0,.51-.07v2.67a8.8,8.8,0,0,1-1,.1c-.36,0-.71,0-1.05,0a9.29,9.29,0,0,1-1.52-.11,3.6,3.6,0,0,1-1.26-.42,2.26,2.26,0,0,1-.86-.9,3.22,3.22,0,0,1-.32-1.53v-7.4h-2.08V51.53H189V47.76h3.45v3.77Z"/><path class="cls-1" d="M204.44,64.08V62.33h-.07a3.9,3.9,0,0,1-1.7,1.58,5.1,5.1,0,0,1-2.14.49,5.89,5.89,0,0,1-2.27-.37,3.23,3.23,0,0,1-1.4-1,4,4,0,0,1-.71-1.63,9.82,9.82,0,0,1-.21-2.12V51.53h3.45v7.09a4.33,4.33,0,0,0,.49,2.32,1.86,1.86,0,0,0,1.72.76,2.38,2.38,0,0,0,2-.84,4.64,4.64,0,0,0,.63-2.75V51.53h3.45V64.08Z"/><path class="cls-1" d="M212.27,51.53v2.33h0a4,4,0,0,1,.66-1.08,4.21,4.21,0,0,1,.94-.85,4.61,4.61,0,0,1,1.14-.55,4.16,4.16,0,0,1,1.27-.19,2.77,2.77,0,0,1,.75.12v3.21a4,4,0,0,0-.58-.09,5.07,5.07,0,0,0-.66,0,3.68,3.68,0,0,0-1.6.32,2.82,2.82,0,0,0-1.06.86,3.32,3.32,0,0,0-.57,1.28,7.06,7.06,0,0,0-.17,1.57v5.66H209V51.53Z"/><path class="cls-1" d="M224.85,54.47a2.42,2.42,0,0,0-1.89-.68,2.84,2.84,0,0,0-1.37.28,2.51,2.51,0,0,0-.87.69,2.29,2.29,0,0,0-.46.87,4.14,4.14,0,0,0-.16.83h5.61a4,4,0,0,0-.86-2m-3.9,6.6a3.55,3.55,0,0,0,4,.23,2.14,2.14,0,0,0,.92-1.1h3a5.79,5.79,0,0,1-2.24,3.23,6.61,6.61,0,0,1-3.64,1,7.06,7.06,0,0,1-2.67-.48,5.54,5.54,0,0,1-2-1.34,6.3,6.3,0,0,1-1.27-2.09,7.63,7.63,0,0,1-.45-2.67,7.31,7.31,0,0,1,.46-2.63,6.38,6.38,0,0,1,1.31-2.1,6.27,6.27,0,0,1,2-1.39,6.53,6.53,0,0,1,2.61-.51,5.86,5.86,0,0,1,2.79.62,5.46,5.46,0,0,1,2,1.66,6.74,6.74,0,0,1,1.1,2.38,8.89,8.89,0,0,1,.25,2.79H220.1a3.48,3.48,0,0,0,.85,2.43"/><path class="cls-1" d="M243.37,57.38,241.19,51h-.05l-2.26,6.36Zm-.21-10.64,6.48,17.34h-4l-1.31-3.86h-6.48l-1.36,3.86h-3.84l6.56-17.34Z"/><path class="cls-1" d="M253.09,51.53v2.33h0a4.25,4.25,0,0,1,1.6-1.93,4.44,4.44,0,0,1,1.14-.55,4.14,4.14,0,0,1,1.26-.19,2.77,2.77,0,0,1,.76.12v3.2c-.17,0-.36-.06-.59-.08a4.82,4.82,0,0,0-.65,0,3.73,3.73,0,0,0-1.61.32,2.86,2.86,0,0,0-1.05.86,3.32,3.32,0,0,0-.57,1.28,6.52,6.52,0,0,0-.17,1.57v5.66h-3.45V51.53Z"/><path class="cls-1" d="M258.59,51.53V47.76H262v3.77h2.53v2.3H262v6.22a1.18,1.18,0,0,0,1.46,1.46,5.12,5.12,0,0,0,.56,0,3.92,3.92,0,0,0,.51-.07v2.67a8.8,8.8,0,0,1-1,.1l-1,0a9.09,9.09,0,0,1-1.51-.11,3.59,3.59,0,0,1-1.27-.42,2.26,2.26,0,0,1-.86-.9,3.23,3.23,0,0,1-.31-1.53V51.53Z"/><path class="cls-1" d="M277.31,54.9a8.73,8.73,0,0,0,1.27-.09,3,3,0,0,0,1.07-.38,2.17,2.17,0,0,0,.74-.79,3.44,3.44,0,0,0,0-2.67,2.17,2.17,0,0,0-.74-.79,3,3,0,0,0-1.07-.38,8.73,8.73,0,0,0-1.27-.09h-3V54.9Zm1.05-8.16a7.16,7.16,0,0,1,2.77.48A5.12,5.12,0,0,1,283,48.47a5,5,0,0,1,1,1.77,6.49,6.49,0,0,1,.33,2.06,6.58,6.58,0,0,1-.33,2.06,4.8,4.8,0,0,1-1,1.78,5,5,0,0,1-1.85,1.25,7.16,7.16,0,0,1-2.77.48h-4v6.21h-3.81V46.74Z"/><rect class="cls-1" x="285.5" y="46.74" width="3.45" height="17.34"/><path class="cls-1" d="M298,58.24a3.88,3.88,0,0,1-.71.18l-.79.13c-.27,0-.55.07-.82.12a7.2,7.2,0,0,0-.77.19,2.09,2.09,0,0,0-.65.33,1.5,1.5,0,0,0-.45.52,1.72,1.72,0,0,0-.17.8,1.67,1.67,0,0,0,.17.78,1.31,1.31,0,0,0,.46.5,2,2,0,0,0,.68.25,4.25,4.25,0,0,0,.8.07,3,3,0,0,0,1.58-.34,2.23,2.23,0,0,0,.83-.81,2.66,2.66,0,0,0,.32-1,6.57,6.57,0,0,0,.06-.77V57.94a1.41,1.41,0,0,1-.54.3m-6.81-4.87a4.13,4.13,0,0,1,1.35-1.28,5.93,5.93,0,0,1,1.86-.7,11.19,11.19,0,0,1,2.08-.2,14,14,0,0,1,1.92.13,5.79,5.79,0,0,1,1.77.52,3.47,3.47,0,0,1,1.31,1.08,3.06,3.06,0,0,1,.51,1.84v6.53a14.13,14.13,0,0,0,.1,1.63,2.86,2.86,0,0,0,.34,1.16h-3.5c-.06-.19-.11-.39-.16-.59a6.17,6.17,0,0,1-.08-.62,4.51,4.51,0,0,1-1.94,1.19,8.09,8.09,0,0,1-2.29.34,6.42,6.42,0,0,1-1.67-.22,3.87,3.87,0,0,1-1.36-.68,3.19,3.19,0,0,1-.91-1.17,3.89,3.89,0,0,1-.33-1.67,3.67,3.67,0,0,1,.38-1.76,3.17,3.17,0,0,1,1-1.11,4.46,4.46,0,0,1,1.36-.62c.51-.13,1-.24,1.54-.32s1-.15,1.53-.2a9.14,9.14,0,0,0,1.34-.22,2.24,2.24,0,0,0,.92-.42.92.92,0,0,0,.31-.82,1.83,1.83,0,0,0-.18-.88,1.31,1.31,0,0,0-.48-.51,2,2,0,0,0-.71-.24,5.76,5.76,0,0,0-.86-.07,2.62,2.62,0,0,0-1.6.44,1.93,1.93,0,0,0-.68,1.46h-3.45a4,4,0,0,1,.61-2"/><path class="cls-1" d="M306.94,51.53v1.75H307a4,4,0,0,1,1.7-1.59,4.83,4.83,0,0,1,2.14-.5,5.89,5.89,0,0,1,2.27.37,3.43,3.43,0,0,1,1.4,1,3.93,3.93,0,0,1,.71,1.62,10,10,0,0,1,.21,2.13v7.72H312V57a4.44,4.44,0,0,0-.48-2.32,1.89,1.89,0,0,0-1.73-.76,2.41,2.41,0,0,0-2,.83,4.68,4.68,0,0,0-.63,2.76v6.58h-3.45V51.53Z"/><path class="cls-1" d="M320.18,51.53v1.75h.07a4.07,4.07,0,0,1,1.7-1.6,5,5,0,0,1,2.14-.49,5.89,5.89,0,0,1,2.27.37,3.43,3.43,0,0,1,1.4,1,4.07,4.07,0,0,1,.72,1.62,10.71,10.71,0,0,1,.2,2.13v7.72h-3.45V57a4.44,4.44,0,0,0-.48-2.32,1.89,1.89,0,0,0-1.73-.76,2.41,2.41,0,0,0-2,.83,4.68,4.68,0,0,0-.63,2.76v6.58H316.9V51.53Z"/><path class="cls-1" d="M333.61,51.53V64.08h-3.45V51.53Zm-3.45-1.94V46.74h3.45v2.85Z"/><path class="cls-1" d="M338.45,51.53v1.75h.07a4,4,0,0,1,1.7-1.59,4.83,4.83,0,0,1,2.14-.5,5.89,5.89,0,0,1,2.27.37,3.5,3.5,0,0,1,1.4,1,3.93,3.93,0,0,1,.71,1.62,10,10,0,0,1,.21,2.13v7.72H343.5V57a4.46,4.46,0,0,0-.48-2.32,1.89,1.89,0,0,0-1.73-.76,2.41,2.41,0,0,0-2,.83,4.68,4.68,0,0,0-.63,2.76v6.58h-3.45V51.53Z"/><path class="cls-1" d="M355.36,60.83a2.59,2.59,0,0,0,.92-.78,3.25,3.25,0,0,0,.55-1.1,4.69,4.69,0,0,0,.18-1.3,7.64,7.64,0,0,0-.14-1.47,3.73,3.73,0,0,0-.49-1.23,2.37,2.37,0,0,0-.9-.85,2.82,2.82,0,0,0-1.4-.31,2.5,2.5,0,0,0-1.26.29,2.63,2.63,0,0,0-.87.79,3.29,3.29,0,0,0-.51,1.14,5.43,5.43,0,0,0-.16,1.35,6.7,6.7,0,0,0,.14,1.34,3.46,3.46,0,0,0,.46,1.21,2.75,2.75,0,0,0,.86.87,2.4,2.4,0,0,0,1.34.34,2.77,2.77,0,0,0,1.28-.29M360.09,65a4.27,4.27,0,0,1-.89,1.81,5.14,5.14,0,0,1-2,1.42,8.46,8.46,0,0,1-3.45.59,8.26,8.26,0,0,1-1.88-.23,6.32,6.32,0,0,1-1.75-.72,4.34,4.34,0,0,1-1.31-1.25,3.61,3.61,0,0,1-.59-1.83h3.42a2,2,0,0,0,.95,1.34,3.3,3.3,0,0,0,1.63.38,2.49,2.49,0,0,0,2.12-.87,3.45,3.45,0,0,0,.64-2.21V61.77H357a3.34,3.34,0,0,1-1.59,1.47,5.06,5.06,0,0,1-2.17.48,5.52,5.52,0,0,1-2.43-.5,4.46,4.46,0,0,1-1.67-1.36,5.56,5.56,0,0,1-1-2,9.59,9.59,0,0,1-.31-2.44,8,8,0,0,1,.36-2.34,6.07,6.07,0,0,1,1-2,4.94,4.94,0,0,1,1.69-1.37,5,5,0,0,1,2.31-.51,4.86,4.86,0,0,1,2.18.46A3.75,3.75,0,0,1,357,53.2H357V51.53h3.28V63.28a8.83,8.83,0,0,1-.2,1.72"/><path class="cls-1" d="M282,4.88l13.85,37h-8.45l-2.81-8.25H270.74l-2.91,8.24h-8.19l14-37Zm.47,22.72L277.79,14h-.1L272.86,27.6Z"/><path class="cls-1" d="M318.27,4.88l13.85,37h-8.46l-2.8-8.24H307l-2.9,8.24h-8.2l14-37Zm.46,22.72L314.07,14H314L309.14,27.6Z"/><path class="cls-1" d="M349,4.88a15.5,15.5,0,0,1,5.91,1,11.07,11.07,0,0,1,4,2.68,10.21,10.21,0,0,1,2.23,3.78,14.15,14.15,0,0,1,0,8.79A10.29,10.29,0,0,1,358.87,25a11,11,0,0,1-4,2.66,15.3,15.3,0,0,1-5.91,1h-8.56V41.91h-8.14v-37Zm-2.23,17.43a17,17,0,0,0,2.7-.21,6.3,6.3,0,0,0,2.28-.8,4.45,4.45,0,0,0,1.58-1.69,6,6,0,0,0,.6-2.85,5.88,5.88,0,0,0-.6-2.85,4.45,4.45,0,0,0-1.58-1.69,6.49,6.49,0,0,0-2.28-.8,17,17,0,0,0-2.7-.21h-6.33v11.1Z"/><path class="cls-1" d="M121.84,14.76a8,8,0,0,0-1.81-2,8.42,8.42,0,0,0-5.34-1.87A9.44,9.44,0,0,0,110,11.91a8.79,8.79,0,0,0-3.11,2.85,12.32,12.32,0,0,0-1.74,4.07,20.45,20.45,0,0,0-.54,4.72,19,19,0,0,0,.54,4.53,12.15,12.15,0,0,0,1.74,4A8.8,8.8,0,0,0,110,34.87a9.44,9.44,0,0,0,4.66,1.06,7.53,7.53,0,0,0,5.83-2.28,10.59,10.59,0,0,0,2.57-6H131a18.65,18.65,0,0,1-1.6,6.27,15.15,15.15,0,0,1-3.42,4.77,14.63,14.63,0,0,1-5,3,18.25,18.25,0,0,1-6.27,1A19,19,0,0,1,107,41.24a16.23,16.23,0,0,1-5.72-4.06,18,18,0,0,1-3.58-6.09,22.38,22.38,0,0,1-1.24-7.54,23.11,23.11,0,0,1,1.24-7.7,18.45,18.45,0,0,1,3.58-6.19A16.32,16.32,0,0,1,107,5.51,18.78,18.78,0,0,1,114.69,4a18.6,18.6,0,0,1,5.78.88,15.55,15.55,0,0,1,4.87,2.57,13.82,13.82,0,0,1,3.55,4.17,15,15,0,0,1,1.76,5.7h-7.88A6.41,6.41,0,0,0,121.84,14.76Z"/><path class="cls-1" d="M133,22.69a12.33,12.33,0,0,1,7.15-7.31,15.35,15.35,0,0,1,5.7-1,15.59,15.59,0,0,1,5.73,1,12.27,12.27,0,0,1,7.18,7.31,16.62,16.62,0,0,1,1,5.83,16.43,16.43,0,0,1-1,5.81,12.73,12.73,0,0,1-2.8,4.43,12.2,12.2,0,0,1-4.38,2.82,15.8,15.8,0,0,1-5.73,1,15.56,15.56,0,0,1-5.7-1,12.16,12.16,0,0,1-4.35-2.82,12.64,12.64,0,0,1-2.8-4.43,16.43,16.43,0,0,1-1-5.81A16.4,16.4,0,0,1,133,22.69Zm6.68,9a8.31,8.31,0,0,0,1.07,2.75,5.6,5.6,0,0,0,2,1.94,6.14,6.14,0,0,0,3.11.72,6.31,6.31,0,0,0,3.14-.72,5.61,5.61,0,0,0,2-1.94,8.29,8.29,0,0,0,1.06-2.75,15.55,15.55,0,0,0,.31-3.14,15.9,15.9,0,0,0-.31-3.16A8,8,0,0,0,151,22.61a6,6,0,0,0-2-1.94,6.08,6.08,0,0,0-3.14-.75,5.63,5.63,0,0,0-5.1,2.7,7.84,7.84,0,0,0-1.06,2.74,15.9,15.9,0,0,0-.32,3.16A16.31,16.31,0,0,0,139.7,31.66Z"/><path class="cls-1" d="M167.7,15.1v5h.11a8.81,8.81,0,0,1,1.4-2.3,9.21,9.21,0,0,1,2-1.82,10,10,0,0,1,2.43-1.16,8.76,8.76,0,0,1,2.7-.42,5.84,5.84,0,0,1,1.6.26v6.84c-.35-.06-.77-.13-1.25-.18a13.66,13.66,0,0,0-1.4-.07,7.81,7.81,0,0,0-3.42.67,5.91,5.91,0,0,0-2.25,1.84,7.18,7.18,0,0,0-1.22,2.72,14.93,14.93,0,0,0-.37,3.37V41.89h-7.35V15.1Z"/><path class="cls-1" d="M186.5,15.1v3.73h.16a8.46,8.46,0,0,1,3.63-3.4,10.57,10.57,0,0,1,4.56-1.06,12.37,12.37,0,0,1,4.84.81,7.23,7.23,0,0,1,3,2.23,8.6,8.6,0,0,1,1.52,3.47,21.14,21.14,0,0,1,.45,4.53V41.89h-7.37V26.76a9.32,9.32,0,0,0-1-5,4,4,0,0,0-3.68-1.63A5.14,5.14,0,0,0,188.21,22q-1.35,1.8-1.35,5.89v14h-7.36V15.1Z"/><path class="cls-1" d="M215.09,35.46a7.54,7.54,0,0,0,8.6.5,4.61,4.61,0,0,0,2-2.36h6.48a12.32,12.32,0,0,1-4.77,6.89,14,14,0,0,1-7.77,2.08,15.35,15.35,0,0,1-5.7-1,11.88,11.88,0,0,1-4.31-2.88,13,13,0,0,1-2.72-4.46,16.31,16.31,0,0,1-1-5.7,15.81,15.81,0,0,1,1-5.6A13,13,0,0,1,214,15.46a13.94,13.94,0,0,1,5.57-1.09,12.75,12.75,0,0,1,6,1.33,11.85,11.85,0,0,1,4.17,3.54,14.72,14.72,0,0,1,2.36,5.08,19.28,19.28,0,0,1,.52,6H213.28Q213.43,33.87,215.09,35.46Zm8.32-14.09a5.2,5.2,0,0,0-4-1.45,6.4,6.4,0,0,0-2.93.6,5.44,5.44,0,0,0-2.85,3.34,8.12,8.12,0,0,0-.33,1.76h12A8.59,8.59,0,0,0,223.41,21.37Z"/><path class="cls-1" d="M241.58,4.89v37h-7.36v-37Z"/><path class="cls-1" d="M251.84,4.89v37h-7.36v-37Z"/></svg>