<?xml version="1.0" encoding="utf-8"?>
<!-- Generator: Adobe Illustrator 26.5.0, SVG Export Plug-In . SVG Version: 6.00 Build 0)  -->
<svg version="1.1" id="Logo" xmlns="http://www.w3.org/2000/svg" xmlns:xlink="http://www.w3.org/1999/xlink" x="0px" y="0px"
	 viewBox="0 0 230.8 50.5" style="enable-background:new 0 0 230.8 50.5;" xml:space="preserve">
<path d="M16.7,6.9h7v7h-7C16.7,13.9,16.7,6.9,16.7,6.9z"/>
<path d="M41.6,1.5h4.8v11.4c0,1.4-0.3,2.5-1,3.5s-1.5,1.8-2.7,2.3c-1.2,0.5-2.5,0.8-4,0.8s-2.9-0.3-4-0.8c-1.2-0.5-2-1.3-2.7-2.3
	c-0.6-1-1-2.2-1-3.5V1.5h4.8v11c0,0.6,0.1,1,0.4,1.5c0.2,0.4,0.6,0.8,1,1c0.4,0.2,0.9,0.4,1.5,0.4s1-0.1,1.5-0.4
	c0.4-0.2,0.8-0.6,1-1c0.2-0.4,0.4-0.9,0.4-1.5L41.6,1.5L41.6,1.5z"/>
<path d="M48.7,19.3V1.5h7.7c1.3,0,2.5,0.2,3.5,0.7s1.8,1.2,2.3,2.1c0.5,0.9,0.8,2,0.8,3.2s-0.3,2.3-0.8,3.2s-1.4,1.5-2.4,2
	c-1,0.4-2.2,0.7-3.6,0.7h-4.6V9.7h3.6c0.6,0,1-0.1,1.5-0.2c0.4-0.1,0.7-0.4,0.9-0.7S58,8.1,58,7.5s-0.1-0.9-0.3-1.2
	s-0.5-0.6-0.9-0.7s-0.9-0.2-1.5-0.2h-1.7v14H48.7L48.7,19.3z M59.2,11.1l4.5,8.2h-5.2L54,11.1C54,11.1,59.2,11.1,59.2,11.1z"/>
<path d="M65.1,19.3V1.5h7.7c1.4,0,2.5,0.2,3.4,0.5s1.6,0.9,2.1,1.5S79,5.1,79,6c0,0.7-0.1,1.2-0.4,1.8s-0.7,1-1.2,1.4
	c-0.5,0.4-1.1,0.6-1.8,0.8V10c0.8,0,1.5,0.2,2.1,0.6s1.1,0.9,1.5,1.5s0.6,1.4,0.6,2.2c0,1-0.2,1.8-0.8,2.6s-1.2,1.4-2.2,1.8
	c-0.9,0.4-2.1,0.6-3.3,0.6L65.1,19.3L65.1,19.3z M69.9,8.7h2c0.4,0,0.8-0.1,1.1-0.2s0.6-0.3,0.8-0.6s0.3-0.6,0.3-0.9
	c0-0.6-0.2-1-0.6-1.3c-0.4-0.3-0.9-0.4-1.5-0.4h-2.1L69.9,8.7L69.9,8.7z M69.9,15.5h2.3c0.8,0,1.4-0.1,1.8-0.5
	c0.4-0.3,0.6-0.8,0.6-1.4c0-0.4-0.1-0.8-0.3-1.1s-0.5-0.5-0.8-0.7s-0.8-0.2-1.3-0.2h-2.3C69.9,11.7,69.9,15.5,69.9,15.5z"/>
<path d="M86.1,19.3h-5.2l5.9-17.8h6.6l5.9,17.8H94L90.1,6.4H90L86.1,19.3L86.1,19.3z M85.1,12.3h9.8v3.6h-9.8V12.3z"/>
<path d="M116.3,1.5v17.8h-4l-6.4-9.4h-0.1v9.4h-4.8V1.5h4.1l6.3,9.3h0.1V1.5H116.3z"/>
<path d="M126.2,13.9c-0.7,0-1.2-0.2-1.7-0.7s-0.7-1.1-0.7-1.7c0-0.7,0.2-1.2,0.7-1.7s1.1-0.7,1.7-0.7c0.6,0,1.2,0.2,1.7,0.7
	s0.7,1,0.7,1.7c0,0.4-0.1,0.9-0.4,1.2c-0.2,0.4-0.5,0.7-0.9,0.9C127,13.8,126.6,13.9,126.2,13.9z"/>
<path d="M142.9,19.3H136V1.5h6.8c1.8,0,3.4,0.4,4.8,1.1c1.3,0.7,2.4,1.7,3.1,3.1c0.7,1.3,1.1,2.9,1.1,4.8s-0.4,3.4-1.1,4.8
	s-1.8,2.4-3.1,3.1S144.7,19.3,142.9,19.3L142.9,19.3z M140.9,15.2h1.8c0.9,0,1.6-0.1,2.3-0.4s1.1-0.8,1.4-1.5
	c0.3-0.7,0.5-1.7,0.5-2.9s-0.2-2.2-0.5-2.9s-0.8-1.2-1.5-1.5s-1.4-0.4-2.4-0.4h-1.7L140.9,15.2L140.9,15.2z"/>
<path d="M157.5,19.3h-5.2l5.9-17.8h6.6l5.9,17.8h-5.2l-3.9-12.9h-0.1L157.5,19.3L157.5,19.3z M156.5,12.3h9.8v3.6h-9.8V12.3z"/>
<path d="M169.6,5.4V1.5h15.5v3.9h-5.4v13.9H175V5.4H169.6z"/>
<path d="M189.3,19.3h-5.2l5.9-17.8h6.6l5.9,17.8h-5.2l-3.9-12.9h-0.1L189.3,19.3L189.3,19.3z M188.3,12.3h9.8v3.6h-9.8V12.3z"/>
<path d="M211.7,13.9c-0.7,0-1.2-0.2-1.7-0.7s-0.7-1.1-0.7-1.7c0-0.7,0.2-1.2,0.7-1.7s1.1-0.7,1.7-0.7c0.6,0,1.2,0.2,1.7,0.7
	s0.7,1,0.7,1.7c0,0.4-0.1,0.9-0.4,1.2c-0.2,0.4-0.5,0.7-0.9,0.9C212.5,13.8,212.1,13.9,211.7,13.9z"/>
<path d="M3.9,43.3c-0.7,0-1.2-0.2-1.7-0.7s-0.7-1-0.7-1.7c0-0.7,0.2-1.2,0.7-1.7s1-0.7,1.7-0.7c0.6,0,1.2,0.2,1.7,0.7s0.7,1,0.7,1.7
	c0,0.5-0.1,0.9-0.3,1.2S5.5,42.8,5.1,43C4.8,43.2,4.4,43.3,3.9,43.3z"/>
<path d="M13.8,48.7V30.9h7.7c1.3,0,2.5,0.2,3.5,0.7s1.8,1.2,2.3,2.1c0.5,0.9,0.8,2,0.8,3.2s-0.3,2.3-0.9,3.2s-1.4,1.5-2.4,2
	c-1,0.5-2.2,0.7-3.6,0.7h-4.6v-3.8h3.6c0.6,0,1-0.1,1.5-0.2c0.4-0.1,0.7-0.4,0.9-0.7s0.3-0.7,0.3-1.2s-0.1-0.9-0.3-1.2
	s-0.5-0.6-0.9-0.7s-0.9-0.2-1.5-0.2h-1.7v14L13.8,48.7L13.8,48.7z M24.2,40.5l4.5,8.2h-5.2l-4.4-8.2H24.2z"/>
<path d="M30.1,48.7V30.9H43v3.9h-8v3.1h7.3v3.9H35v3.1h8v3.9C43,48.7,30.1,48.7,30.1,48.7z"/>
<path d="M55,36.5c0-0.6-0.3-1-0.7-1.4c-0.4-0.3-1-0.5-1.8-0.5c-0.5,0-0.9,0.1-1.2,0.2s-0.5,0.3-0.7,0.5s-0.2,0.4-0.2,0.7
	c0,0.2,0,0.4,0.1,0.6c0.1,0.2,0.2,0.3,0.4,0.5s0.5,0.3,0.8,0.4c0.3,0.1,0.7,0.2,1.1,0.3l1.5,0.3c1,0.2,1.8,0.5,2.5,0.8
	c0.7,0.3,1.3,0.7,1.7,1.2c0.5,0.5,0.8,1,1,1.5c0.2,0.6,0.3,1.2,0.3,1.9c0,1.2-0.3,2.2-0.9,3c-0.6,0.8-1.4,1.4-2.5,1.8
	c-1.1,0.4-2.4,0.6-3.9,0.6s-2.9-0.2-4-0.7s-2-1.2-2.7-2.1c-0.6-1-1-2.2-1-3.7h4.6c0,0.5,0.2,1,0.4,1.4c0.2,0.4,0.6,0.7,1,0.8
	s1,0.3,1.6,0.3c0.5,0,1-0.1,1.3-0.2c0.3-0.1,0.6-0.3,0.8-0.5s0.3-0.5,0.3-0.8c0-0.3-0.1-0.5-0.3-0.7c-0.2-0.2-0.5-0.4-0.8-0.6
	c-0.4-0.2-0.9-0.3-1.6-0.5l-1.8-0.4c-1.6-0.3-2.8-0.9-3.7-1.7c-0.9-0.8-1.4-1.9-1.3-3.3c0-1.1,0.3-2.1,0.9-3s1.5-1.5,2.5-2
	s2.3-0.7,3.8-0.7s2.7,0.2,3.7,0.7s1.9,1.2,2.4,2s0.9,1.9,0.9,3.1L55,36.5L55,36.5z"/>
<path d="M61.7,48.7V30.9h12.8v3.9h-8v3.1h7.3v3.9h-7.3v3.1h8v3.9C74.5,48.7,61.7,48.7,61.7,48.7z"/>
<path d="M81.6,48.7h-5.2l5.9-17.8h6.6l5.9,17.8h-5.2l-3.9-12.9h-0.1L81.6,48.7L81.6,48.7z M80.6,41.7h9.8v3.6h-9.8V41.7z"/>
<path d="M96.4,48.7V30.9h7.7c1.3,0,2.5,0.2,3.5,0.7s1.8,1.2,2.3,2.1c0.6,0.9,0.8,2,0.8,3.2s-0.3,2.3-0.8,3.2s-1.4,1.5-2.4,2
	c-1,0.5-2.2,0.7-3.6,0.7h-4.6v-3.8h3.6c0.6,0,1.1-0.1,1.5-0.2c0.4-0.1,0.7-0.4,0.9-0.7s0.3-0.7,0.3-1.2s-0.1-0.9-0.3-1.2
	s-0.5-0.6-0.9-0.7s-0.9-0.2-1.5-0.2h-1.7v14L96.4,48.7L96.4,48.7z M106.9,40.5l4.4,8.2h-5.2l-4.3-8.2H106.9z"/>
<path d="M129.4,37.6h-4.9c0-0.4-0.1-0.8-0.3-1.1c-0.2-0.3-0.3-0.6-0.6-0.9s-0.6-0.4-0.9-0.6s-0.8-0.2-1.2-0.2
	c-0.8,0-1.5,0.2-2.1,0.6s-1,1-1.3,1.7s-0.4,1.6-0.4,2.7c0,1.1,0.2,2,0.4,2.7c0.3,0.7,0.7,1.3,1.3,1.7s1.2,0.5,2,0.5
	c0.4,0,0.8-0.1,1.2-0.2s0.7-0.3,0.9-0.5c0.3-0.2,0.5-0.5,0.6-0.8c0.2-0.3,0.3-0.7,0.3-1l4.9,0c-0.1,0.8-0.3,1.5-0.6,2.3
	c-0.4,0.8-0.9,1.5-1.6,2.2s-1.5,1.2-2.5,1.6s-2.1,0.6-3.4,0.6c-1.6,0-3.1-0.3-4.4-1s-2.3-1.7-3.1-3.1c-0.8-1.4-1.1-3-1.1-5
	s0.4-3.7,1.2-5s1.8-2.4,3.1-3.1c1.3-0.7,2.8-1,4.3-1c1.1,0,2.2,0.1,3.1,0.5s1.8,0.8,2.5,1.3c0.7,0.6,1.3,1.3,1.7,2.2
	C129.1,35.5,129.3,36.5,129.4,37.6L129.4,37.6z"/>
<path d="M131.6,48.7V30.9h4.8v7h6.4v-7h4.8v17.8h-4.8v-7h-6.4v7H131.6z"/>
<path d="M157.6,43.3c-0.7,0-1.2-0.2-1.7-0.7s-0.7-1-0.7-1.7c0-0.7,0.2-1.2,0.7-1.7s1.1-0.7,1.7-0.7c0.6,0,1.2,0.2,1.7,0.7
	s0.7,1,0.7,1.7c0,0.5-0.1,0.9-0.4,1.2c-0.2,0.4-0.5,0.7-0.9,0.9C158.4,43.2,158,43.3,157.6,43.3z"/>
<path d="M167.4,48.7V30.9h4.8v13.9h7.2v3.9H167.4z"/>
<path d="M186,48.7h-5.2l5.9-17.8h6.6l5.9,17.8h-5.2L190,35.8h-0.1L186,48.7L186,48.7z M185,41.7h9.8v3.6H185V41.7z"/>
<path d="M200.9,48.7V30.9h7.7c1.4,0,2.5,0.2,3.4,0.5c0.9,0.4,1.6,0.9,2.1,1.6s0.7,1.5,0.7,2.4c0,0.7-0.1,1.2-0.4,1.8s-0.7,1-1.2,1.3
	c-0.5,0.4-1.1,0.6-1.8,0.8v0.2c0.8,0,1.5,0.2,2.1,0.6c0.6,0.4,1.1,0.8,1.5,1.5c0.4,0.6,0.6,1.4,0.6,2.2c0,1-0.2,1.8-0.8,2.6
	s-1.2,1.4-2.2,1.8c-0.9,0.4-2.1,0.7-3.3,0.7L200.9,48.7L200.9,48.7z M205.7,38.1h2c0.4,0,0.8-0.1,1.1-0.2s0.6-0.3,0.8-0.6
	s0.3-0.6,0.3-0.9c0-0.5-0.2-1-0.6-1.3c-0.4-0.3-0.9-0.4-1.5-0.4h-2.1L205.7,38.1L205.7,38.1z M205.7,44.9h2.3c0.8,0,1.4-0.2,1.8-0.5
	c0.4-0.3,0.6-0.8,0.6-1.3c0-0.4-0.1-0.8-0.3-1.1s-0.5-0.5-0.8-0.7c-0.4-0.2-0.8-0.2-1.3-0.2h-2.3V44.9z"/>
<path d="M222.3,36.3h7v7h-7V36.3z"/>
</svg>
